<svg width="50" height="50" viewBox="0 0 50 50" fill="none" xmlns="http://www.w3.org/2000/svg">
<path fill-rule="evenodd" clip-rule="evenodd" d="M11.3937 12.9563C11.5389 12.8107 11.7113 12.6953 11.9011 12.6165C12.091 12.5378 12.2945 12.4972 12.5 12.4972C12.7055 12.4972 12.909 12.5378 13.0989 12.6165C13.2887 12.6953 13.4611 12.8107 13.6063 12.9563L25 24.3531L36.3937 12.9563C36.6871 12.6629 37.0851 12.498 37.5 12.498C37.9149 12.498 38.3129 12.6629 38.6063 12.9563C38.8996 13.2496 39.0645 13.6476 39.0645 14.0625C39.0645 14.4774 38.8996 14.8754 38.6063 15.1688L26.1063 27.6688C25.9611 27.8143 25.7887 27.9297 25.5989 28.0085C25.409 28.0872 25.2055 28.1278 25 28.1278C24.7945 28.1278 24.591 28.0872 24.4011 28.0085C24.2113 27.9297 24.0389 27.8143 23.8937 27.6688L11.3937 15.1688C11.2482 15.0236 11.1328 14.8512 11.054 14.6614C10.9753 14.4715 10.9347 14.268 10.9347 14.0625C10.9347 13.857 10.9753 13.6535 11.054 13.4636C11.1328 13.2738 11.2482 13.1014 11.3937 12.9563ZM3.125 35.9375C3.125 35.5231 3.28962 35.1257 3.58265 34.8326C3.87567 34.5396 4.2731 34.375 4.6875 34.375H45.3125C45.7269 34.375 46.1243 34.5396 46.4174 34.8326C46.7104 35.1257 46.875 35.5231 46.875 35.9375C46.875 36.3519 46.7104 36.7493 46.4174 37.0424C46.1243 37.3354 45.7269 37.5 45.3125 37.5H4.6875C4.2731 37.5 3.87567 37.3354 3.58265 37.0424C3.28962 36.7493 3.125 36.3519 3.125 35.9375Z" fill="white"/>
</svg>
