<svg width="36" height="51" viewBox="0 0 36 51" fill="none" xmlns="http://www.w3.org/2000/svg">
<g clip-path="url(#clip0_150_75)">
<path d="M17.9781 50.8712L3.32871 46.7852L0.0640869 9.99744H35.936L32.668 46.7796L17.9781 50.8712V50.8712Z" fill="#264DE4"/>
<path d="M29.8702 44.4374L32.6627 13.0053H18V47.7437L29.8702 44.4374V44.4374Z" fill="#2965F1"/>
<path d="M7.54807 26.6494L7.9505 31.1613H18V26.6494H7.54807ZM6.73926 17.5173L7.14746 22.0291H18V17.5173H6.73926V17.5173ZM18 38.3672L17.9803 38.3725L12.979 37.0157L12.6592 33.4173H8.15116L8.78026 40.5016L17.9793 43.0671L18 43.0615V38.3672Z" fill="#EBEBEB"/>
<path d="M8.50635 0H13.9453V2.28525H10.7809V4.5705H13.9456V6.85562H8.50635V0ZM15.0332 0H20.4723V1.98716H17.3078V2.38457H20.4723V6.95507H15.0333V4.86831H18.1978V4.47091H15.0331V0H15.0332ZM21.5602 0H26.9993V1.98716H23.8348V2.38457H26.9993V6.95507H21.5602V4.86831H24.7247V4.47091H21.5603V0H21.5602Z" fill="black"/>
<path d="M28.4232 26.6494L29.2339 17.5173H17.9845V22.0291H24.3124L23.9038 26.6494H17.9845V31.1613H23.5144L22.993 37.0128L17.9844 38.371V43.065L27.1908 40.5016L27.2582 39.7393L28.3137 27.8609L28.4232 26.6494V26.6494Z" fill="white"/>
</g>
<defs>
<clipPath id="clip0_150_75">
<rect width="36" height="51" fill="white"/>
</clipPath>
</defs>
</svg>
