<svg width="34" height="51" viewBox="0 0 34 51" fill="none" xmlns="http://www.w3.org/2000/svg">
<path d="M8.50043 51C13.1922 51 17 47.192 17 42.5V34H8.50043C3.80866 34 0.000854492 37.808 0.000854492 42.5C0.000854492 47.192 3.80866 51 8.50043 51Z" fill="#0ACF83"/>
<path d="M0.000854492 25.5C0.000854492 20.808 3.80866 17 8.50043 17H17V34H8.50043C3.80866 34 0.000854492 30.192 0.000854492 25.5Z" fill="#A259FF"/>
<path d="M0.000976562 8.5C0.000976562 3.808 3.80879 0 8.50055 0H17.0001V17H8.50055C3.80879 17 0.000976562 13.192 0.000976562 8.5Z" fill="#F24E1E"/>
<path d="M17 0H25.4996C30.1913 0 33.9991 3.808 33.9991 8.5C33.9991 13.192 30.1913 17 25.4996 17H17V0Z" fill="#FF7262"/>
<path d="M33.9991 25.5C33.9991 30.192 30.1913 34 25.4996 34C20.8078 34 17 30.192 17 25.5C17 20.808 20.8078 17 25.4996 17C30.1913 17 33.9991 20.808 33.9991 25.5Z" fill="#1ABCFE"/>
</svg>
