<svg width="24" height="24" viewBox="0 0 24 24" fill="none" xmlns="http://www.w3.org/2000/svg">
<path d="M12 13V11.5C12 10.9696 11.7893 10.4608 11.4142 10.0858C11.0391 9.7107 10.5304 9.49998 10 9.49998C9.46957 9.49998 8.96086 9.7107 8.58579 10.0858C8.21071 10.4608 8 10.9696 8 11.5V15M19 16L19.87 4.26498C19.9172 3.71587 19.7469 3.17018 19.3957 2.74543C19.0444 2.32069 18.5405 2.05087 17.9923 1.9941C17.4441 1.93732 16.8955 2.09813 16.4647 2.44189C16.0339 2.78565 15.7553 3.28485 15.689 3.83198L15 8.99998L19 16ZM8 15V12C8 11.4696 7.78929 10.9608 7.41421 10.5858C7.03914 10.2107 6.53043 9.99998 6 9.99998C5.46957 9.99998 4.96086 10.2107 4.58579 10.5858C4.21071 10.9608 4 11.4696 4 12V16L8 15Z" stroke="#505050" stroke-width="2" stroke-linecap="round" stroke-linejoin="round"/>
<path d="M16 13V11C16 10.4696 15.7893 9.96086 15.4142 9.58579C15.0391 9.21071 14.5304 9 14 9C13.4696 9 12.9609 9.21071 12.5858 9.58579C12.2107 9.96086 12 10.4696 12 11V13" stroke="#505050" stroke-width="2" stroke-linecap="round" stroke-linejoin="round"/>
<path d="M19 16C18.464 20 15.642 22 11.5 22C7.358 22 4 20 4 16" stroke="#505050" stroke-width="2"/>
<path d="M13.692 17H11C10.4696 17 9.96086 16.7893 9.58579 16.4142C9.21071 16.0391 9 15.5304 9 15C9 14.4696 9.21071 13.9609 9.58579 13.5858C9.96086 13.2107 10.4696 13 11 13H15C17.21 13 19.5 15 18.5 18" stroke="#505050" stroke-width="2" stroke-linecap="round" stroke-linejoin="round"/>
</svg>
