<svg width="36" height="51" viewBox="0 0 36 51" fill="none" xmlns="http://www.w3.org/2000/svg">
<g clip-path="url(#clip0_150_81)">
<path d="M35.936 9.99744L32.668 46.7796L17.9781 50.8712L3.32871 46.7852L0.0640869 9.99744H35.936Z" fill="#E44D26"/>
<path d="M18 47.7437L29.8702 44.4374L32.6627 13.0053H18V47.7437Z" fill="#F16529"/>
<path d="M11.6471 22.0292H18V17.5173H6.73926L6.84669 18.7277L7.9505 31.1613H18V26.6494H12.0575L11.6471 22.0292ZM12.6592 33.4173H8.15116L8.78026 40.5016L17.9793 43.0671L18 43.0615V38.3672L17.9803 38.3725L12.979 37.0157L12.6592 33.4173Z" fill="#EBEBEB"/>
<path d="M3.40149 0H5.68364V2.26533H7.77133V0H10.0536V6.85999H7.77147V4.56288H5.68378V6.85999H3.40163V0H3.40149ZM13.0546 2.27494H11.0458V0H17.3472V2.27494H15.3372V6.85999H13.055V2.27494H13.0549H13.0546ZM18.3473 0H20.7269L22.1907 2.41042L23.653 0H26.0336V6.85999H23.7608V3.45981L22.1907 5.89891H22.1513L20.5802 3.45981V6.85999H18.3473V0ZM27.1694 0H29.4522V4.59254H32.6616V6.85999H27.1692V0H27.1694Z" fill="black"/>
<path d="M17.9845 31.1613H23.5144L22.993 37.0128L17.9844 38.371V43.065L27.1908 40.5016L27.2582 39.7393L28.3137 27.8609L28.4232 26.6494H17.9845V31.1613ZM17.9845 22.0181V22.0291H28.8319L28.9218 21.0151L29.1266 18.7277L29.2339 17.5173H17.9845V22.0183V22.0181Z" fill="white"/>
</g>
<defs>
<clipPath id="clip0_150_81">
<rect width="36" height="51" fill="white"/>
</clipPath>
</defs>
</svg>
