<svg width="51" height="51" viewBox="0 0 51 51" fill="none" xmlns="http://www.w3.org/2000/svg">
<path d="M29.921 31.3969C30.4155 32.3992 31.1826 33.2416 32.1344 33.8275C33.0862 34.4133 34.1839 34.7187 35.3015 34.7087C37.5615 34.7087 39.0054 33.5787 39.0054 32.0184C39.0054 30.1489 37.5216 29.4859 35.0354 28.3974L33.6711 27.8125C29.7361 26.1359 27.1208 24.0353 27.1208 19.5951C27.1208 15.504 30.2382 12.3914 35.1087 12.3914C36.6894 12.2767 38.2689 12.6305 39.6497 13.4086C41.0305 14.1867 42.1512 15.3546 42.8718 16.7662L38.6245 19.4931C38.3464 18.7936 37.862 18.1953 37.2357 17.7777C36.6094 17.3601 35.8709 17.1429 35.1182 17.1551C34.7902 17.1221 34.4588 17.1578 34.1453 17.26C33.8318 17.3621 33.5431 17.5285 33.2974 17.7485C33.0518 17.9685 32.8547 18.2372 32.7188 18.5376C32.5828 18.838 32.5109 19.1634 32.5077 19.4931C32.5077 21.1299 33.5213 21.7913 35.8545 22.8049L37.2188 23.3883C41.8534 25.3757 44.4688 27.4013 44.4688 31.9563C44.4688 36.8666 40.6119 39.5569 35.4306 39.5569C33.4124 39.6852 31.4002 39.2269 29.6366 38.2371C27.8731 37.2473 26.4337 35.7684 25.492 33.9787L29.921 31.3969ZM10.6558 31.875C11.5132 33.3954 12.2925 34.68 14.162 34.68C15.9534 34.68 17.085 33.9787 17.085 31.2534V12.7101H22.5388V31.3299C22.5388 36.9766 19.227 39.5473 14.3947 39.5473C12.6878 39.6397 10.9929 39.2132 9.53296 38.3239C8.07305 37.4347 6.91654 36.1243 6.21558 34.5652L10.6558 31.875Z" fill="#F5DE19"/>
</svg>
