<svg width="100" height="100" viewBox="0 0 100 100" fill="none" xmlns="http://www.w3.org/2000/svg">
<path d="M58.6688 61.5625C59.6383 63.5278 61.1425 65.1797 63.0088 66.3284C64.875 67.4771 67.0274 68.076 69.2188 68.0563C73.65 68.0563 76.4813 65.8406 76.4813 62.7813C76.4813 59.1156 73.5719 57.8156 68.6969 55.6813L66.0219 54.5344C58.3063 51.2469 53.1781 47.1281 53.1781 38.4219C53.1781 30.4 59.2906 24.2969 68.8406 24.2969C71.9402 24.072 75.0372 24.7658 77.7446 26.2915C80.452 27.8172 82.6495 30.1071 84.0625 32.875L75.7344 38.2219C75.1891 36.8503 74.2393 35.6772 73.0113 34.8583C71.7833 34.0394 70.3352 33.6136 68.8594 33.6375C68.2161 33.5728 67.5664 33.6428 66.9517 33.8432C66.337 34.0435 65.7708 34.3697 65.2892 34.8011C64.8076 35.2324 64.4211 35.7593 64.1545 36.3483C63.8879 36.9373 63.7469 37.5754 63.7406 38.2219C63.7406 41.4313 65.7281 42.7281 70.3031 44.7156L72.9781 45.8594C82.0656 49.7563 87.1938 53.7281 87.1938 62.6594C87.1938 72.2875 79.6313 77.5625 69.4719 77.5625C65.5146 77.8142 61.569 76.9155 58.1112 74.9747C54.6533 73.034 51.8309 70.1341 49.9844 66.625L58.6688 61.5625ZM20.8937 62.5C22.575 65.4813 24.1031 68 27.7687 68C31.2813 68 33.5 66.625 33.5 61.2813V24.9219H44.1938V61.4313C44.1938 72.5031 37.7 77.5438 28.225 77.5438C24.8781 77.7249 21.5547 76.8887 18.6922 75.1451C15.8296 73.4014 13.5619 70.8321 12.1875 67.775L20.8937 62.5Z" fill="#F5DE19"/>
</svg>
