<svg width="183" height="50" viewBox="0 0 183 50" fill="none" xmlns="http://www.w3.org/2000/svg">
<path d="M18.242 14.8V31.7C18.242 32.8093 18.008 33.7887 17.54 34.638C17.072 35.5047 16.4393 36.224 15.642 36.796C14.8447 37.3853 13.9433 37.8013 12.938 38.044C11.95 38.2867 10.9273 38.3387 9.87 38.2V37.966C10.702 37.5847 11.3347 37.056 11.768 36.38C12.2187 35.704 12.522 34.95 12.678 34.118C12.834 33.286 12.912 32.454 12.912 31.622V14.8H18.242ZM12.99 16.698H12.912C12.8947 16.2473 12.7213 15.866 12.392 15.554C12.08 15.2247 11.6987 15.06 11.248 15.06C11.248 15.06 11.1873 15.06 11.066 15.06C10.962 15.06 10.91 15.06 10.91 15.06V14.8H12.99V16.698ZM18.164 16.698V14.8H20.244V15.06C20.244 15.06 20.1833 15.06 20.062 15.06C19.958 15.06 19.906 15.06 19.906 15.06C19.4553 15.06 19.0653 15.2247 18.736 15.554C18.424 15.866 18.2593 16.2473 18.242 16.698H18.164ZM27.7917 17.4V33H22.6957V17.4H27.7917ZM33.2777 31.804L34.3177 33H27.7397V31.804H33.2777ZM32.6277 24.706V25.928H27.7397V24.706H32.6277ZM33.7717 17.4V18.596H27.7397V17.4H33.7717ZM35.0977 27.54L34.3697 33H29.5337L30.2877 31.804C30.9637 31.804 31.6051 31.6393 32.2117 31.31C32.8357 30.9633 33.3817 30.478 33.8497 29.854C34.3177 29.2127 34.6557 28.4413 34.8637 27.54H35.0977ZM32.6277 25.876V28.684H32.3677V28.58C32.3677 27.8173 32.1251 27.1933 31.6397 26.708C31.1717 26.2053 30.5564 25.9453 29.7937 25.928V25.876H32.6277ZM32.6277 21.976V24.758H29.7937V24.706C30.5564 24.6887 31.1717 24.4287 31.6397 23.926C32.1251 23.4233 32.3677 22.7907 32.3677 22.028V21.976H32.6277ZM33.7717 18.544V21.924H33.5117V21.794C33.5117 20.7887 33.2517 20.0087 32.7317 19.454C32.2117 18.8993 31.4577 18.6133 30.4697 18.596V18.544H33.7717ZM33.7717 17.01V17.634L31.1977 17.4C31.6657 17.4 32.1597 17.3567 32.6797 17.27C33.2171 17.166 33.5811 17.0793 33.7717 17.01ZM22.7737 31.388L22.7477 33H21.0577V32.74C21.0577 32.74 21.1011 32.74 21.1877 32.74C21.2744 32.74 21.3264 32.74 21.3437 32.74C21.7077 32.74 22.0197 32.61 22.2797 32.35C22.5571 32.09 22.6957 31.7693 22.6957 31.388H22.7737ZM22.7737 19.038H22.6957C22.6957 18.6393 22.5571 18.31 22.2797 18.05C22.0197 17.79 21.7077 17.66 21.3437 17.66C21.3264 17.66 21.2744 17.66 21.1877 17.66C21.1011 17.66 21.0577 17.66 21.0577 17.66V17.4H22.7477L22.7737 19.038ZM46.0886 17.088C47.5793 17.088 48.9053 17.27 50.0666 17.634C51.2453 17.998 52.2419 18.5267 53.0566 19.22C53.8886 19.9133 54.5126 20.7627 54.9286 21.768C55.3619 22.7733 55.5786 23.926 55.5786 25.226C55.5786 26.5087 55.3619 27.6527 54.9286 28.658C54.5126 29.646 53.8886 30.4867 53.0566 31.18C52.2419 31.8733 51.2453 32.402 50.0666 32.766C48.9053 33.13 47.5793 33.312 46.0886 33.312C44.6153 33.312 43.2893 33.13 42.1106 32.766C40.9493 32.402 39.9526 31.8733 39.1206 31.18C38.3059 30.4867 37.6819 29.646 37.2486 28.658C36.8326 27.6527 36.6246 26.5087 36.6246 25.226C36.6246 23.926 36.8326 22.7733 37.2486 21.768C37.6819 20.7627 38.3059 19.9133 39.1206 19.22C39.9526 18.5267 40.9493 17.998 42.1106 17.634C43.2893 17.27 44.6153 17.088 46.0886 17.088ZM46.0886 32.142C47.0073 32.142 47.7699 31.8733 48.3766 31.336C49.0006 30.7813 49.4686 29.9927 49.7806 28.97C50.0926 27.93 50.2486 26.682 50.2486 25.226C50.2486 23.7527 50.0926 22.496 49.7806 21.456C49.4686 20.416 49.0006 19.6273 48.3766 19.09C47.7699 18.5353 47.0073 18.258 46.0886 18.258C45.1873 18.258 44.4246 18.5353 43.8006 19.09C43.1939 19.6273 42.7259 20.416 42.3966 21.456C42.0846 22.496 41.9286 23.7527 41.9286 25.226C41.9286 26.682 42.0846 27.93 42.3966 28.97C42.7259 29.9927 43.1939 30.7813 43.8006 31.336C44.4246 31.8733 45.1873 32.142 46.0886 32.142ZM57.9863 17.062L73.7943 30.374L74.0803 33.312L58.2723 20.052L57.9863 17.062ZM58.1423 31.44V33H56.2183V32.74C56.2183 32.74 56.2876 32.74 56.4263 32.74C56.5649 32.74 56.6343 32.74 56.6343 32.74C57.0329 32.74 57.3709 32.6187 57.6483 32.376C57.9256 32.1333 58.0643 31.8213 58.0643 31.44H58.1423ZM63.1603 31.44C63.1776 31.8213 63.3249 32.1333 63.6023 32.376C63.8796 32.6187 64.2089 32.74 64.5903 32.74C64.5903 32.74 64.6596 32.74 64.7983 32.74C64.9369 32.74 65.0063 32.74 65.0063 32.74V33H63.1083V31.44H63.1603ZM57.9863 17.062L63.1603 22.548V33H58.0643V19.818C58.0643 18.934 58.0123 18.258 57.9083 17.79C57.8043 17.3047 57.7523 17.062 57.7523 17.062H57.9863ZM74.0023 17.4V30.478C74.0023 31.102 74.0283 31.6307 74.0803 32.064C74.1323 32.48 74.1843 32.792 74.2363 33C74.2883 33.208 74.3143 33.312 74.3143 33.312H74.0803L68.9062 27.384L68.8803 17.4H74.0023ZM73.9503 18.96V17.4H75.8743V17.66C75.8743 17.66 75.7963 17.66 75.6403 17.66C75.5016 17.66 75.4323 17.66 75.4323 17.66C75.0509 17.66 74.7216 17.7813 74.4443 18.024C74.1669 18.2667 74.0196 18.5787 74.0023 18.96H73.9503ZM68.8803 18.96C68.8803 18.5787 68.7416 18.2667 68.4643 18.024C68.2043 17.7813 67.8749 17.66 67.4763 17.66C67.4763 17.66 67.3983 17.66 67.2423 17.66C67.1036 17.66 67.0343 17.66 67.0343 17.66V17.4H68.9583V18.96H68.8803ZM85.4041 17.088C86.2014 17.088 87.0334 17.1313 87.9001 17.218C88.7841 17.3047 89.5987 17.4173 90.3441 17.556C91.0894 17.6947 91.6701 17.8507 92.0861 18.024L91.7221 22.444H91.5401C91.2281 21.2827 90.8034 20.4073 90.2661 19.818C89.7287 19.2113 89.1481 18.804 88.5241 18.596C87.9174 18.3707 87.3194 18.258 86.7301 18.258C85.5861 18.258 84.6501 18.5353 83.9221 19.09C83.2114 19.6447 82.6827 20.4593 82.3361 21.534C82.0067 22.5913 81.8421 23.8827 81.8421 25.408C81.8421 26.7947 81.9721 27.9907 82.2321 28.996C82.5094 30.0013 82.9341 30.7813 83.5061 31.336C84.0781 31.8733 84.8147 32.142 85.7161 32.142C86.1494 32.142 86.5654 32.0467 86.9641 31.856C87.3627 31.6653 87.6747 31.388 87.9001 31.024C88.1254 30.66 88.1947 30.2093 88.1081 29.672L88.1341 26.76C88.1341 26.4133 88.0387 26.1533 87.8481 25.98C87.6574 25.8067 87.3887 25.72 87.0421 25.72H86.6781V25.512H94.6081V25.72H94.2961C93.5334 25.72 93.1694 26.0667 93.2041 26.76L93.1781 30.452C92.8487 30.9027 92.2767 31.3533 91.4621 31.804C90.6647 32.2373 89.7201 32.6013 88.6281 32.896C87.5361 33.1733 86.3747 33.312 85.1441 33.312C83.4107 33.312 81.8941 32.9913 80.5941 32.35C79.3114 31.6913 78.3147 30.7553 77.6041 29.542C76.8934 28.3287 76.5381 26.864 76.5381 25.148C76.5381 23.4667 76.8847 22.028 77.5781 20.832C78.2887 19.6187 79.3027 18.6913 80.6201 18.05C81.9374 17.4087 83.5321 17.088 85.4041 17.088Z" fill="#70C9E4"/>
<path d="M115.139 14.8V33H109.809V14.8H115.139ZM102.815 14.8V33H97.4851V14.8H102.815ZM110.043 23.25V24.55H102.555V23.25H110.043ZM97.5631 31.102V33H95.4831V32.74C95.4831 32.74 95.5351 32.74 95.6391 32.74C95.7605 32.74 95.8211 32.74 95.8211 32.74C96.2718 32.74 96.6531 32.584 96.9651 32.272C97.2945 31.9427 97.4678 31.5527 97.4851 31.102H97.5631ZM97.5631 16.698H97.4851C97.4678 16.2473 97.2945 15.866 96.9651 15.554C96.6531 15.2247 96.2718 15.06 95.8211 15.06C95.8211 15.06 95.7605 15.06 95.6391 15.06C95.5351 15.06 95.4831 15.06 95.4831 15.06V14.8H97.5631V16.698ZM102.737 31.102H102.815C102.832 31.5527 102.997 31.9427 103.309 32.272C103.638 32.584 104.028 32.74 104.479 32.74C104.479 32.74 104.531 32.74 104.635 32.74C104.739 32.74 104.8 32.74 104.817 32.74V33H102.737V31.102ZM102.737 16.698V14.8H104.817V15.06C104.8 15.06 104.739 15.06 104.635 15.06C104.531 15.06 104.479 15.06 104.479 15.06C104.028 15.06 103.638 15.2247 103.309 15.554C102.997 15.866 102.832 16.2473 102.815 16.698H102.737ZM109.887 31.102V33H107.807V32.74C107.824 32.74 107.885 32.74 107.989 32.74C108.093 32.74 108.145 32.74 108.145 32.74C108.596 32.74 108.986 32.584 109.315 32.272C109.644 31.9427 109.809 31.5527 109.809 31.102H109.887ZM109.887 16.698H109.809C109.809 16.2473 109.644 15.866 109.315 15.554C108.986 15.2247 108.596 15.06 108.145 15.06C108.145 15.06 108.093 15.06 107.989 15.06C107.885 15.06 107.824 15.06 107.807 15.06V14.8H109.887V16.698ZM115.061 31.102H115.139C115.156 31.5527 115.321 31.9427 115.633 32.272C115.962 32.584 116.352 32.74 116.803 32.74C116.803 32.74 116.855 32.74 116.959 32.74C117.08 32.74 117.141 32.74 117.141 32.74V33H115.061V31.102ZM115.061 16.698V14.8H117.141V15.06C117.141 15.06 117.08 15.06 116.959 15.06C116.855 15.06 116.803 15.06 116.803 15.06C116.352 15.06 115.962 15.2247 115.633 15.554C115.321 15.866 115.156 16.2473 115.139 16.698H115.061ZM123.786 17.426L128.752 25.824L123.734 25.876L118.222 17.426H123.786ZM128.752 25.694V33H123.656V25.772L128.752 25.694ZM132.002 17.426H134.082L128.44 26.214L127.036 26.006L132.002 17.426ZM131.092 18.986C131.283 18.674 131.274 18.3793 131.066 18.102C130.875 17.8073 130.624 17.66 130.312 17.66C130.312 17.66 130.26 17.66 130.156 17.66C130.069 17.66 130.026 17.66 130.026 17.66V17.4H135.694V17.66H135.356C134.888 17.66 134.455 17.7813 134.056 18.024C133.675 18.2667 133.363 18.5613 133.12 18.908L131.092 18.986ZM124.722 18.986L119.21 18.908C118.985 18.5613 118.673 18.2667 118.274 18.024C117.875 17.7813 117.442 17.66 116.974 17.66H116.662V17.4H125.762V17.66C125.762 17.66 125.719 17.66 125.632 17.66C125.545 17.66 125.502 17.66 125.502 17.66C125.173 17.66 124.913 17.8073 124.722 18.102C124.549 18.3793 124.549 18.674 124.722 18.986ZM123.734 31.388V33H121.94V32.74C121.94 32.74 121.983 32.74 122.07 32.74C122.174 32.74 122.235 32.74 122.252 32.74C122.633 32.74 122.963 32.61 123.24 32.35C123.517 32.09 123.656 31.7693 123.656 31.388H123.734ZM128.7 31.388H128.752C128.769 31.7693 128.917 32.09 129.194 32.35C129.471 32.61 129.801 32.74 130.182 32.74C130.182 32.74 130.225 32.74 130.312 32.74C130.416 32.74 130.468 32.74 130.468 32.74V33H128.7V31.388ZM141.435 17.4V27.202C141.435 28.7273 141.765 29.9233 142.423 30.79C143.099 31.6393 144.035 32.064 145.231 32.064C146.41 32.064 147.32 31.6653 147.961 30.868C148.603 30.0533 148.932 28.9267 148.949 27.488V17.4H151.003V27.202C151.003 29.1087 150.44 30.608 149.313 31.7C148.187 32.7747 146.557 33.312 144.425 33.312C141.6 33.312 139.546 32.7747 138.263 31.7C136.981 30.6253 136.339 29.1433 136.339 27.254V17.4H141.435ZM136.391 17.4V18.726H136.339C136.339 18.3967 136.227 18.128 136.001 17.92C135.776 17.712 135.507 17.608 135.195 17.608C135.195 17.608 135.135 17.608 135.013 17.608C134.909 17.608 134.857 17.608 134.857 17.608V17.4H136.391ZM142.917 17.4V17.608C142.917 17.608 142.857 17.608 142.735 17.608C142.614 17.608 142.553 17.608 142.553 17.608C142.241 17.608 141.973 17.712 141.747 17.92C141.539 18.128 141.435 18.3967 141.435 18.726H141.383V17.4H142.917ZM149.001 17.4V18.726H148.949C148.932 18.3967 148.811 18.128 148.585 17.92C148.377 17.712 148.117 17.608 147.805 17.608C147.805 17.608 147.745 17.608 147.623 17.608C147.519 17.608 147.467 17.608 147.467 17.608V17.4H149.001ZM152.485 17.4V17.608C152.485 17.608 152.425 17.608 152.303 17.608C152.199 17.608 152.147 17.608 152.147 17.608C151.835 17.608 151.567 17.712 151.341 17.92C151.116 18.128 151.003 18.3967 151.003 18.726H150.951V17.4H152.485ZM154.598 17.062L170.406 30.374L170.692 33.312L154.884 20.052L154.598 17.062ZM154.754 31.44V33H152.83V32.74C152.83 32.74 152.899 32.74 153.038 32.74C153.176 32.74 153.246 32.74 153.246 32.74C153.644 32.74 153.982 32.6187 154.26 32.376C154.537 32.1333 154.676 31.8213 154.676 31.44H154.754ZM159.772 31.44C159.789 31.8213 159.936 32.1333 160.214 32.376C160.491 32.6187 160.82 32.74 161.202 32.74C161.202 32.74 161.271 32.74 161.41 32.74C161.548 32.74 161.618 32.74 161.618 32.74V33H159.72V31.44H159.772ZM154.598 17.062L159.772 22.548V33H154.676V19.818C154.676 18.934 154.624 18.258 154.52 17.79C154.416 17.3047 154.364 17.062 154.364 17.062H154.598ZM170.614 17.4V30.478C170.614 31.102 170.64 31.6307 170.692 32.064C170.744 32.48 170.796 32.792 170.848 33C170.9 33.208 170.926 33.312 170.926 33.312H170.692L165.518 27.384L165.492 17.4H170.614ZM170.562 18.96V17.4H172.486V17.66C172.486 17.66 172.408 17.66 172.252 17.66C172.113 17.66 172.044 17.66 172.044 17.66C171.662 17.66 171.333 17.7813 171.056 18.024C170.778 18.2667 170.631 18.5787 170.614 18.96H170.562ZM165.492 18.96C165.492 18.5787 165.353 18.2667 165.076 18.024C164.816 17.7813 164.486 17.66 164.088 17.66C164.088 17.66 164.01 17.66 163.854 17.66C163.715 17.66 163.646 17.66 163.646 17.66V17.4H165.57V18.96H165.492Z" fill="#49A9D1"/>
<path d="M103 24H129" stroke="#49A9D1"/>
</svg>
