<svg width="50" height="50" viewBox="0 0 50 50" fill="none" xmlns="http://www.w3.org/2000/svg">
<path d="M25 15.625C26.7259 15.625 28.125 14.2259 28.125 12.5C28.125 10.7741 26.7259 9.375 25 9.375C23.2741 9.375 21.875 10.7741 21.875 12.5C21.875 14.2259 23.2741 15.625 25 15.625Z" fill="#49A9D1"/>
<path d="M25 28.125C26.7259 28.125 28.125 26.7259 28.125 25C28.125 23.2741 26.7259 21.875 25 21.875C23.2741 21.875 21.875 23.2741 21.875 25C21.875 26.7259 23.2741 28.125 25 28.125Z" fill="#49A9D1"/>
<path d="M25 40.625C26.7259 40.625 28.125 39.2259 28.125 37.5C28.125 35.7741 26.7259 34.375 25 34.375C23.2741 34.375 21.875 35.7741 21.875 37.5C21.875 39.2259 23.2741 40.625 25 40.625Z" fill="#49A9D1"/>
</svg>
