<svg width="51" height="51" viewBox="0 0 51 51" fill="none" xmlns="http://www.w3.org/2000/svg">
<path d="M5.04736 5.60522H45.9526V45.3948H5.04736V5.60522Z" fill="#0C0824"/>
<path d="M5.04741 5.60521H45.9526V45.3948H5.04741V5.60521ZM3.1875 47.2547H47.8125V3.7453H3.1875V47.2547ZM33.2727 21.5953C31.8033 21.5953 31.3012 22.3396 31.3012 22.9532C31.3012 23.6226 31.6359 24.0879 33.6074 25.1095C36.5272 26.5232 37.4324 27.8795 37.4324 29.8701C37.4324 32.8456 35.1645 34.4441 32.0965 34.4441C30.7799 34.4929 29.4712 34.2193 28.2843 33.6472C28.1536 33.5915 28.1361 33.499 28.1361 33.3492V30.6127C28.1361 30.4263 28.2285 30.3705 28.3592 30.4645C29.4738 31.1813 30.7713 31.562 32.0965 31.561C33.566 31.561 34.1796 30.9474 34.1796 30.1107C34.1796 29.4413 33.7524 28.8469 31.8734 27.8795C29.2326 26.6156 28.1361 25.3295 28.1361 23.1938C28.1361 20.7952 30.0135 18.8062 33.2679 18.8062C34.4008 18.7576 35.532 18.9347 36.5957 19.3274C36.6569 19.3672 36.7065 19.4225 36.7393 19.4878C36.7721 19.553 36.7869 19.6259 36.7822 19.6987V22.2487C36.7822 22.397 36.6897 22.491 36.5033 22.4352C35.5202 21.8693 34.4021 21.5801 33.2679 21.5985L33.2727 21.5953ZM17.281 23.8074C17.7082 23.8441 18.0428 23.8441 18.7871 23.8441C20.9626 23.8441 23.0074 23.0823 23.0074 20.1259C23.0074 17.7639 21.5379 16.575 19.066 16.575C18.3218 16.575 17.6157 16.6116 17.281 16.6308V23.8074ZM13.9708 13.9262C13.9708 13.7955 14.2306 13.7031 14.3804 13.7031C15.9786 13.6377 17.5781 13.6069 19.1776 13.6106C24.3286 13.6106 26.3367 16.4363 26.3367 20.0446C26.3367 24.7669 22.9149 26.7941 18.7138 26.7941C18.0078 26.7941 17.7655 26.7575 17.2635 26.7575V33.8975C17.2635 34.0457 17.2077 34.1206 17.0404 34.1206H14.1955C14.0473 34.1206 13.9724 34.0648 13.9724 33.8975V13.9341L13.9708 13.9262Z" fill="#31C5F0"/>
</svg>
