<svg width="50" height="50" viewBox="0 0 50 50" fill="none" xmlns="http://www.w3.org/2000/svg">
<rect width="50" height="50" rx="25" fill="white"/>
<circle cx="25" cy="25" r="25" fill="#505050"/>
<path d="M15.024 20.136V30.76C15.024 30.9093 14.9493 30.984 14.8 30.984H14.064C13.9147 30.984 13.84 30.9093 13.84 30.76V20.136H10.544C10.3947 20.136 10.32 20.0613 10.32 19.912V19.368C10.32 19.2187 10.3947 19.144 10.544 19.144H18.352C18.5013 19.144 18.576 19.2187 18.576 19.368V19.912C18.576 20.0613 18.5013 20.136 18.352 20.136H15.024ZM29.1188 25.064C29.1188 24.392 29.0334 23.7573 28.8628 23.16C28.6921 22.5627 28.4521 22.024 28.1428 21.544C27.7694 21.0213 27.3214 20.6213 26.7987 20.344C26.2868 20.056 25.7054 19.912 25.0548 19.912C24.3934 19.912 23.8014 20.056 23.2788 20.344C22.7668 20.6213 22.3241 21.0213 21.9508 21.544C21.6414 22.024 21.4014 22.5627 21.2308 23.16C21.0601 23.7573 20.9748 24.392 20.9748 25.064C20.9748 25.736 21.0601 26.376 21.2308 26.984C21.4014 27.5813 21.6414 28.12 21.9508 28.6C22.3348 29.112 22.7881 29.512 23.3108 29.8C23.8334 30.088 24.4148 30.232 25.0548 30.232C25.7054 30.232 26.2868 30.0933 26.7987 29.816C27.3214 29.528 27.7694 29.1227 28.1428 28.6C28.4521 28.12 28.6921 27.5813 28.8628 26.984C29.0334 26.376 29.1188 25.736 29.1188 25.064ZM30.2868 25.064C30.2654 26.9627 29.8281 28.4453 28.9748 29.512C28.0468 30.664 26.7401 31.24 25.0548 31.24C23.3694 31.24 22.0574 30.664 21.1188 29.512C20.2441 28.4133 19.8068 26.9307 19.8068 25.064C19.8068 24.1787 19.9134 23.3787 20.1268 22.664C20.3401 21.9493 20.6494 21.3147 21.0548 20.76C21.5348 20.1733 22.1108 19.72 22.7828 19.4C23.4654 19.0693 24.2228 18.904 25.0548 18.904C25.8974 18.904 26.6494 19.064 27.3108 19.384C27.9828 19.704 28.5588 20.168 29.0388 20.776C29.4548 21.352 29.7694 21.9973 29.9828 22.712C30.1961 23.416 30.2974 24.2 30.2868 25.064ZM38.8325 22.488C38.8325 21.7307 38.6352 21.1493 38.2405 20.744C37.8458 20.328 37.2645 20.12 36.4965 20.12H34.0965V24.904H35.3925C35.9045 24.904 36.3632 24.8773 36.7685 24.824C37.1845 24.7707 37.5365 24.6587 37.8245 24.488C38.1232 24.3173 38.3578 24.0773 38.5285 23.768C38.6992 23.448 38.8005 23.0213 38.8325 22.488ZM34.0965 30.76C34.0965 30.9093 34.0218 30.984 33.8725 30.984H33.1525C33.0032 30.984 32.9285 30.9093 32.9285 30.76V19.592C32.9285 19.3573 32.9498 19.2187 32.9925 19.176C33.0458 19.1333 33.1845 19.112 33.4085 19.112H36.2565C37.4298 19.112 38.3472 19.3947 39.0085 19.96C39.6912 20.5467 40.0325 21.3893 40.0325 22.488C40.0325 23.0427 39.9312 23.5387 39.7285 23.976C39.5365 24.4027 39.2645 24.7653 38.9125 25.064C38.5605 25.352 38.1445 25.5707 37.6645 25.72C37.1845 25.8693 36.6725 25.9333 36.1285 25.912H34.0965V30.76Z" fill="white"/>
</svg>
